<svg width="32" height="32" viewBox="0 0 32 32" fill="none" xmlns="http://www.w3.org/2000/svg">
<path d="M27.2199 7.34164C26.2486 8.12528 25.4326 9.36466 25.4326 11.2083C25.4326 8.91667 24.2411 7.04167 21.0638 6.20833C23.0866 5.91896 24.2313 4.73176 24.8368 3.48671M27.2199 7.34164C28.2241 6.53136 29.3943 6.20833 30 6.20833C27.0213 6.20833 25.4326 3.08333 25.4326 1C25.4326 1.64359 25.2776 2.58047 24.8368 3.48671M27.2199 7.34164C27.617 8.63054 27.9745 12 26.227 15.1667C24.0426 19.125 23.6454 23.0833 23.4468 25.375C23.2482 27.6667 22.0568 29.3333 20.4681 28.9167C18.8795 28.5 20.2695 19.125 16.8936 19.125C13.5178 19.125 15.5036 27.875 13.1206 28.9167C11.1348 29.3333 10.3405 26.8333 10.1419 25.375C9.74472 23.0833 9.34756 19.3333 7.56033 15.1667C5.7731 11 5.97168 6.625 7.75891 4.54167C9.54614 2.45833 11.9291 2.66667 13.1205 3.70833C14.312 4.75 17.8865 5.375 19.8723 3.70833C21.461 2.375 23.8439 3.00503 24.8368 3.48671M9.94325 6.83333C9.3475 7.04167 8.27517 8.08333 8.75176 10.5833C9.22835 13.0833 10.2742 15.375 10.7376 16.2083M5.37588 24.125C5.37588 25.2361 4.7007 27.5417 2 27.875C4.06524 28.0417 5.11111 30.0278 5.37588 31C5.44207 30.0278 6.13049 28 8.3546 27.6667C6.44822 27.3333 5.57446 25.1667 5.37588 24.125Z" stroke="#10979B" stroke-linecap="round" stroke-linejoin="round"/>
</svg>
