<svg width="295" height="203" viewBox="0 0 295 203" fill="none" xmlns="http://www.w3.org/2000/svg">
<path d="M108.625 106.515H116.099M116.099 106.515C114.567 102.944 113.486 99.9185 113.486 97.872C113.486 91.1494 119.319 79.625 129.042 79.625C138.764 79.625 136.819 86.3476 148.486 86.3476C159.181 86.3476 161.125 79.625 166.958 79.625C172.792 79.625 184.458 87.3079 184.458 97.872C184.458 100.585 183.817 103.488 182.831 106.515M116.099 106.515C119.598 114.675 125.449 125.682 126.125 134.366C127.097 146.851 128.069 158.375 135.847 158.375C143.625 158.375 139.736 128.604 148.486 128.604C157.236 128.604 154.319 158.375 161.125 158.375C167.931 158.375 170.847 146.851 172.792 134.366C174.237 125.087 179.978 115.278 182.831 106.515M116.099 106.515H135.847M135.847 106.515V116.119L139.736 119.96H157.236L161.125 116.119V106.515M135.847 106.515V97.872L139.736 94.0305H157.236L161.125 97.872V106.515M135.847 106.515H143.625M187.375 106.515H182.831M182.831 106.515H161.125M161.125 106.515H153.347M153.347 106.515V102.674H143.625V106.515M153.347 106.515V112.277H143.625V106.515" stroke="#10979B" stroke-width="2.625" stroke-linejoin="round"/>
<path d="M110.631 75.2627L109.207 75.732L110.631 80.057L112.056 75.732L110.631 75.2627ZM122.263 63.6313L122.732 65.056L127.057 63.6313L122.732 62.2066L122.263 63.6313ZM99 63.6314L98.5307 62.2067L94.2058 63.6314L98.5307 65.056L99 63.6314ZM110.631 52L112.056 51.5307L110.631 47.2057L109.207 51.5307L110.631 52ZM112.056 75.732C113.714 70.6973 117.697 66.7145 122.732 65.056L121.793 62.2066C115.855 64.1629 111.163 68.8547 109.207 74.7934L112.056 75.732ZM98.5307 65.056C103.565 66.7145 107.548 70.6973 109.207 75.732L112.056 74.7934C110.1 68.8548 105.408 64.1629 99.4693 62.2067L98.5307 65.056ZM109.207 51.5307C107.548 56.5654 103.565 60.5482 98.5307 62.2067L99.4693 65.056C105.408 63.0998 110.1 58.4079 112.056 52.4693L109.207 51.5307ZM122.732 62.2066C117.697 60.5482 113.714 56.5654 112.056 51.5307L109.207 52.4693C111.163 58.4079 115.855 63.0998 121.793 65.056L122.732 62.2066Z" fill="#10979B"/>
<path d="M158 24.1313L157.531 22.7066L153.206 24.1313L157.531 25.556L158 24.1313ZM164.131 17.9999L165.556 17.5306L164.131 13.2055L162.707 17.5306L164.131 17.9999ZM164.131 30.2626L162.707 30.7319L164.131 35.0569L165.556 30.7319L164.131 30.2626ZM170.263 24.1313L170.732 25.556L175.057 24.1313L170.732 22.7066L170.263 24.1313ZM158.469 25.556C161.813 24.4544 164.454 21.8134 165.556 18.4692L162.707 17.5306C161.903 19.9709 159.971 21.9027 157.531 22.7066L158.469 25.556ZM165.556 29.7933C164.454 26.4491 161.813 23.8082 158.469 22.7066L157.531 25.556C159.971 26.3598 161.903 28.2917 162.707 30.7319L165.556 29.7933ZM169.793 22.7066C166.449 23.8082 163.808 26.4491 162.707 29.7933L165.556 30.7319C166.36 28.2917 168.292 26.3598 170.732 25.556L169.793 22.7066ZM162.707 18.4692C163.808 21.8134 166.449 24.4544 169.793 25.556L170.732 22.7066C168.292 21.9028 166.36 19.9709 165.556 17.5306L162.707 18.4692Z" fill="#10979B"/>
<path d="M190 145.5L189.53 144.075L185.205 145.5L189.53 146.925L190 145.5ZM199.5 136L200.925 135.53L199.5 131.205L198.075 135.53L199.5 136ZM199.5 155L198.075 155.469L199.5 159.795L200.925 155.469L199.5 155ZM209 145.5L209.469 146.925L213.795 145.5L209.469 144.075L209 145.5ZM190.469 146.925C195.402 145.3 199.3 141.402 200.925 136.469L198.075 135.53C196.748 139.56 193.56 142.748 189.53 144.075L190.469 146.925ZM200.925 154.531C199.3 149.597 195.402 145.7 190.469 144.075L189.53 146.925C193.56 148.252 196.748 151.44 198.075 155.469L200.925 154.531ZM208.531 144.075C203.597 145.7 199.7 149.597 198.075 154.531L200.925 155.469C202.252 151.44 205.44 148.252 209.469 146.925L208.531 144.075ZM198.075 136.469C199.7 141.402 203.597 145.3 208.531 146.925L209.469 144.075C205.44 142.748 202.252 139.56 200.925 135.53L198.075 136.469Z" fill="#10979B"/>
<path d="M125 180.5L124.531 179.075L120.205 180.5L124.531 181.925L125 180.5ZM129.5 176L130.925 175.531L129.5 171.205L128.076 175.531L129.5 176ZM129.5 185L128.076 185.47L129.5 189.795L130.925 185.47L129.5 185ZM134.001 180.5L134.47 181.925L138.795 180.5L134.47 179.075L134.001 180.5ZM125.469 181.925C128.044 181.077 130.077 179.044 130.925 176.469L128.076 175.531C127.525 177.202 126.202 178.525 124.531 179.075L125.469 181.925ZM130.925 184.531C130.077 181.956 128.044 179.923 125.469 179.075L124.531 181.925C126.202 182.475 127.525 183.799 128.076 185.47L130.925 184.531ZM133.531 179.075C130.956 179.924 128.924 181.956 128.076 184.531L130.925 185.47C131.475 183.799 132.799 182.475 134.47 181.925L133.531 179.075ZM128.076 176.469C128.924 179.044 130.956 181.077 133.531 181.925L134.47 179.075C132.799 178.525 131.475 177.202 130.925 175.531L128.076 176.469Z" fill="#10979B"/>
</svg>
