<svg width="32" height="32" viewBox="0 0 32 32" fill="none" xmlns="http://www.w3.org/2000/svg">
<rect x="0.5" y="0.5" width="31" height="31" rx="15.5" stroke="#10979B"/>
<path d="M16.0008 13.8262C14.8011 13.8262 13.8267 14.8006 13.8267 16.0003C13.8267 17.1999 14.8011 18.1768 16.0008 18.1768C17.2004 18.1768 18.1772 17.1999 18.1772 16.0003C18.1772 14.8006 17.2004 13.8262 16.0008 13.8262Z" fill="#10979B"/>
<path d="M19.2812 10.0762H12.72C11.2623 10.0762 10.0747 11.2637 10.0747 12.7215V19.2827C10.0747 20.7428 11.2623 21.928 12.72 21.928H19.2812C20.7414 21.928 21.9266 20.7428 21.9266 19.2827V12.7215C21.9266 11.2637 20.7414 10.0762 19.2812 10.0762ZM16.0006 19.8421C13.8839 19.8421 12.1606 18.1188 12.1606 16.0021C12.1606 13.8854 13.8839 12.1645 16.0006 12.1645C18.1174 12.1645 19.8406 13.8854 19.8406 16.0021C19.8406 18.1188 18.1174 19.8421 16.0006 19.8421ZM19.9212 12.8614C19.4732 12.8614 19.1082 12.4987 19.1082 12.0507C19.1082 11.6027 19.4732 11.2377 19.9212 11.2377C20.3692 11.2377 20.7343 11.6027 20.7343 12.0507C20.7343 12.4987 20.3692 12.8614 19.9212 12.8614Z" fill="#10979B"/>
</svg>
