<svg width="364" height="78" viewBox="0 0 364 78" fill="none" xmlns="http://www.w3.org/2000/svg">
<rect width="364" height="78" fill="#10979B"/>
<mask id="path-1-inside-1_3326_3688" fill="white">
<path d="M16 16H348V40H16V16Z"/>
</mask>
<path d="M348 39H16V41H348V39Z" fill="#E8F7F7" fill-opacity="0.1" mask="url(#path-1-inside-1_3326_3688)"/>
<path d="M30.678 26.974C31.1353 27.1887 31.4993 27.506 31.77 27.926C32.05 28.346 32.19 28.8173 32.19 29.34C32.19 30.1333 31.91 30.7773 31.35 31.272C30.7993 31.7573 30.0947 32 29.236 32L25.288 32L25.288 22.48L28.97 22.48C29.7727 22.48 30.44 22.7133 30.972 23.18C31.5133 23.6467 31.784 24.244 31.784 24.972C31.784 25.8213 31.4153 26.4887 30.678 26.974ZM26.548 23.586L26.548 26.512L28.858 26.512C29.3807 26.512 29.7867 26.3813 30.076 26.12C30.3653 25.8587 30.51 25.49 30.51 25.014C30.51 24.566 30.356 24.216 30.048 23.964C29.74 23.712 29.334 23.586 28.83 23.586L26.548 23.586ZM29.11 30.894C29.6513 30.894 30.09 30.7493 30.426 30.46C30.762 30.1613 30.93 29.7553 30.93 29.242C30.93 28.7473 30.7667 28.3553 30.44 28.066C30.1133 27.7673 29.6887 27.618 29.166 27.618L26.548 27.618L26.548 30.894L29.11 30.894ZM37.9017 22.41L42.3677 31.972V32H41.0377L40.1417 30.054L35.2697 30.054L34.3737 32H33.0437V31.972L37.5097 22.41H37.9017ZM37.7057 24.552C37.4537 25.196 37.2437 25.7047 37.0757 26.078L35.7457 28.976L39.6657 28.976L38.3357 26.078C38.1583 25.686 37.9483 25.1773 37.7057 24.552ZM54.2613 22.48L55.5213 22.48L55.5213 32L43.9293 32L43.9293 22.48H45.1893L45.1893 30.838L49.0953 30.838L49.0953 22.48L50.3553 22.48L50.3553 30.838L54.2613 30.838L54.2613 22.48ZM61.9434 22.41L66.4094 31.972V32H65.0794L64.1834 30.054L59.3114 30.054L58.4154 32L57.0854 32V31.972L61.5514 22.41L61.9434 22.41ZM61.7474 24.552C61.4954 25.196 61.2854 25.7047 61.1174 26.078L59.7874 28.976L63.7074 28.976L62.3774 26.078C62.2001 25.686 61.9901 25.1773 61.7474 24.552ZM77.1095 22.48L78.4535 22.48L75.3455 29.13C74.8042 30.2593 74.2722 31.0247 73.7495 31.426C73.2269 31.8273 72.4522 32.0467 71.4255 32.084L71.3415 30.978C71.9762 30.9687 72.4755 30.8567 72.8395 30.642C73.2129 30.4273 73.5395 30.082 73.8195 29.606L70.0115 22.48L71.3695 22.48L74.4495 28.276L77.1095 22.48ZM83.6093 32.182C82.1813 32.182 81.0146 31.706 80.1093 30.754C79.2039 29.7927 78.7513 28.6167 78.7513 27.226C78.7513 25.798 79.2086 24.622 80.1233 23.698C81.0379 22.7647 82.2046 22.298 83.6233 22.298C84.9859 22.298 86.1806 22.7973 87.2073 23.796L86.4933 24.608C85.7279 23.8427 84.7759 23.46 83.6373 23.46C82.5826 23.46 81.7193 23.8193 81.0473 24.538C80.3753 25.2473 80.0393 26.1433 80.0393 27.226C80.0393 28.29 80.3753 29.1907 81.0473 29.928C81.7193 30.656 82.5779 31.02 83.6233 31.02C84.8459 31.02 85.8166 30.5253 86.5353 29.536L87.4033 30.292C86.9833 30.88 86.4466 31.342 85.7933 31.678C85.1493 32.014 84.4213 32.182 83.6093 32.182ZM98.0154 22.41L99.3874 32L98.1414 32L97.3154 26.162C97.2594 25.7607 97.2267 25.434 97.2174 25.182C97.1614 25.2753 96.97 25.574 96.6434 26.078L94.2354 29.858H93.9694L91.5474 26.078C91.286 25.6673 91.104 25.3733 91.0014 25.196C91.0014 25.2427 90.9594 25.574 90.8754 26.19L90.0494 32L88.8174 32L90.1894 22.41H90.5534L93.4934 27.002C93.792 27.4967 93.9927 27.8373 94.0954 28.024C94.17 27.8933 94.3754 27.5527 94.7114 27.002L97.6374 22.41H98.0154ZM101.549 32L101.549 22.48H102.809L102.809 32H101.549ZM115.862 22.48L117.122 22.48L117.122 32L105.53 32L105.53 22.48H106.79L106.79 30.838L110.696 30.838L110.696 22.48H111.956L111.956 30.838L115.862 30.838L115.862 22.48ZM122.326 27.212L126.75 31.958V32L125.196 32L121.094 27.618V32H119.834L119.834 22.48H121.094L121.094 26.876L124.986 22.48L126.484 22.48V22.522L122.326 27.212ZM132.093 22.41L136.559 31.972V32L135.229 32L134.333 30.054L129.461 30.054L128.565 32L127.235 32V31.972L131.701 22.41H132.093ZM131.897 24.552C131.645 25.196 131.435 25.7047 131.267 26.078L129.937 28.976L133.857 28.976L132.527 26.078C132.349 25.686 132.139 25.1773 131.897 24.552ZM140.669 29.312V28.304L144.393 28.304V29.312L140.669 29.312ZM149.779 32V22.48L151.039 22.48V26.624L156.303 26.624V22.48H157.563L157.563 32H156.303L156.303 27.786L151.039 27.786V32L149.779 32ZM163.992 22.41L168.458 31.972V32L167.128 32L166.232 30.054L161.36 30.054L160.464 32L159.134 32V31.972L163.6 22.41H163.992ZM163.796 24.552C163.544 25.196 163.334 25.7047 163.166 26.078L161.836 28.976L165.756 28.976L164.426 26.078C164.249 25.686 164.039 25.1773 163.796 24.552ZM180.352 22.48L181.612 22.48L181.612 32L170.02 32L170.02 22.48H171.28L171.28 30.838L175.186 30.838L175.186 22.48L176.446 22.48L176.446 30.838L180.352 30.838L180.352 22.48ZM188.034 22.41L192.5 31.972V32L191.17 32L190.274 30.054L185.402 30.054L184.506 32H183.176V31.972L187.642 22.41H188.034ZM187.838 24.552C187.586 25.196 187.376 25.7047 187.208 26.078L185.878 28.976L189.798 28.976L188.468 26.078C188.29 25.686 188.08 25.1773 187.838 24.552ZM197.264 32L197.264 22.48L203.088 22.48V23.642L198.524 23.642L198.524 32H197.264ZM211.983 30.754C211.069 31.706 209.902 32.182 208.483 32.182C207.065 32.182 205.893 31.706 204.969 30.754C204.055 29.7927 203.597 28.6167 203.597 27.226C203.597 25.798 204.055 24.622 204.969 23.698C205.884 22.7647 207.055 22.298 208.483 22.298C209.921 22.298 211.092 22.76 211.997 23.684C212.903 24.608 213.355 25.7887 213.355 27.226C213.355 28.6167 212.898 29.7927 211.983 30.754ZM205.879 29.928C206.551 30.656 207.419 31.02 208.483 31.02C209.547 31.02 210.411 30.656 211.073 29.928C211.745 29.1907 212.081 28.29 212.081 27.226C212.081 26.1247 211.75 25.224 211.087 24.524C210.425 23.8147 209.557 23.46 208.483 23.46C207.41 23.46 206.542 23.8147 205.879 24.524C205.217 25.224 204.885 26.1247 204.885 27.226C204.885 28.29 205.217 29.1907 205.879 29.928ZM215.495 32L215.495 22.48L219.065 22.48C220.017 22.48 220.768 22.7787 221.319 23.376C221.87 23.9733 222.145 24.664 222.145 25.448C222.145 26.232 221.87 26.9087 221.319 27.478C220.778 28.0473 220.008 28.332 219.009 28.332L216.755 28.332L216.755 32H215.495ZM216.755 27.212L218.939 27.212C219.574 27.212 220.054 27.0393 220.381 26.694C220.717 26.3393 220.885 25.9193 220.885 25.434C220.885 24.93 220.708 24.5007 220.353 24.146C220.008 23.7913 219.55 23.614 218.981 23.614L216.755 23.614V27.212ZM230.21 30.838H231.33V34.128H230.112V32L223.196 32V34.128L221.978 34.128V30.838L223.056 30.838C223.597 29.7367 223.938 28.528 224.078 27.212L224.582 22.48L230.21 22.48L230.21 30.838ZM225.296 27.492C225.165 28.6587 224.871 29.774 224.414 30.838L228.95 30.838L228.95 23.642L225.702 23.642L225.296 27.492ZM233.097 32L233.097 22.48H234.357L234.357 32H233.097ZM241.363 32.182C239.935 32.182 238.768 31.706 237.863 30.754C236.958 29.7927 236.505 28.6167 236.505 27.226C236.505 25.798 236.962 24.622 237.877 23.698C238.792 22.7647 239.958 22.298 241.377 22.298C242.74 22.298 243.934 22.7973 244.961 23.796L244.247 24.608C243.482 23.8427 242.53 23.46 241.391 23.46C240.336 23.46 239.473 23.8193 238.801 24.538C238.129 25.2473 237.793 26.1433 237.793 27.226C237.793 28.29 238.129 29.1907 238.801 29.928C239.473 30.656 240.332 31.02 241.377 31.02C242.6 31.02 243.57 30.5253 244.289 29.536L245.157 30.292C244.737 30.88 244.2 31.342 243.547 31.678C242.903 32.014 242.175 32.182 241.363 32.182ZM252.82 22.48V23.642L250.006 23.642L250.006 32L248.746 32L248.746 23.642L245.946 23.642V22.48L252.82 22.48ZM258.227 26.274C259.076 26.274 259.795 26.5447 260.383 27.086C260.971 27.6273 261.265 28.3133 261.265 29.144C261.265 29.9653 260.971 30.6467 260.383 31.188C259.795 31.7293 259.076 32 258.227 32L254.545 32L254.545 22.48H255.805V26.274H258.227ZM258.157 30.866C258.698 30.866 259.137 30.712 259.473 30.404C259.818 30.096 259.991 29.676 259.991 29.144C259.991 28.6027 259.818 28.178 259.473 27.87C259.137 27.562 258.698 27.408 258.157 27.408H255.805L255.805 30.866H258.157ZM263.135 29.592L263.009 22.48H264.367L264.241 29.592L263.135 29.592ZM263.681 32.154C263.457 32.154 263.261 32.084 263.093 31.944C262.934 31.804 262.855 31.6033 262.855 31.342C262.855 31.0807 262.934 30.88 263.093 30.74C263.261 30.6 263.457 30.53 263.681 30.53C263.914 30.53 264.11 30.6 264.269 30.74C264.427 30.88 264.507 31.0807 264.507 31.342C264.507 31.6033 264.427 31.804 264.269 31.944C264.11 32.084 263.914 32.154 263.681 32.154Z" fill="#FEFEFE"/>
<path d="M25.104 55L25.104 46.84L31.44 46.84L31.44 55H30.36L30.36 47.836L26.184 47.836L26.184 55H25.104ZM33.767 55L33.767 46.84L36.827 46.84C37.643 46.84 38.287 47.096 38.759 47.608C39.231 48.12 39.467 48.712 39.467 49.384C39.467 50.056 39.231 50.636 38.759 51.124C38.295 51.612 37.635 51.856 36.779 51.856L34.847 51.856V55H33.767ZM34.847 50.896L36.719 50.896C37.263 50.896 37.675 50.748 37.955 50.452C38.243 50.148 38.387 49.788 38.387 49.372C38.387 48.94 38.235 48.572 37.931 48.268C37.635 47.964 37.243 47.812 36.755 47.812L34.847 47.812L34.847 50.896ZM47.7431 53.932C46.9591 54.748 45.9591 55.156 44.7431 55.156C43.5271 55.156 42.5231 54.748 41.7311 53.932C40.9471 53.108 40.5551 52.1 40.5551 50.908C40.5551 49.684 40.9471 48.676 41.7311 47.884C42.5151 47.084 43.5191 46.684 44.7431 46.684C45.9751 46.684 46.9791 47.08 47.7551 47.872C48.5311 48.664 48.9191 49.676 48.9191 50.908C48.9191 52.1 48.5271 53.108 47.7431 53.932ZM42.5111 53.224C43.0871 53.848 43.8311 54.16 44.7431 54.16C45.6551 54.16 46.3951 53.848 46.9631 53.224C47.5391 52.592 47.8271 51.82 47.8271 50.908C47.8271 49.964 47.5431 49.192 46.9751 48.592C46.4071 47.984 45.6631 47.68 44.7431 47.68C43.8231 47.68 43.0791 47.984 42.5111 48.592C41.9431 49.192 41.6591 49.964 41.6591 50.908C41.6591 51.82 41.9431 52.592 42.5111 53.224ZM55.78 50.896L59.284 54.964V55H58L54.832 51.316V55L53.74 55V51.316L50.572 55H49.288V54.964L52.792 50.896L49.396 46.876V46.84H50.656L53.74 50.536L53.74 46.84L54.832 46.84L54.832 50.524L57.916 46.84L59.164 46.84V46.876L55.78 50.896ZM61.6796 54.028L65.7116 54.028V55L60.5996 55L60.5996 46.84L65.6036 46.84V47.812L61.6796 47.812V50.356L65.1356 50.356L65.1356 51.304L61.6796 51.304V54.028ZM71.1305 46.072C70.2505 46.072 69.6265 45.72 69.2585 45.016L69.8945 44.56C70.1985 45.008 70.6105 45.232 71.1305 45.232C71.6585 45.232 72.0745 45.008 72.3785 44.56L73.0145 45.016C72.6465 45.72 72.0185 46.072 71.1305 46.072ZM73.9865 46.78H74.3105L74.3105 55H73.2185L73.2185 50.032C73.2185 49.664 73.2305 49.288 73.2545 48.904C73.1105 49.088 72.7985 49.448 72.3185 49.984L67.7465 55.06H67.4345L67.4345 46.84H68.5145L68.5145 51.76C68.5145 52.16 68.5025 52.556 68.4785 52.948C68.6785 52.676 69.0065 52.292 69.4625 51.796L73.9865 46.78ZM78.7608 50.896L82.5528 54.964V55L81.2208 55L77.7048 51.244V55H76.6248L76.6248 46.84H77.7048V50.608L81.0408 46.84L82.3248 46.84V46.876L78.7608 50.896ZM90.1088 53.932C89.3248 54.748 88.3248 55.156 87.1088 55.156C85.8928 55.156 84.8888 54.748 84.0968 53.932C83.3128 53.108 82.9208 52.1 82.9208 50.908C82.9208 49.684 83.3128 48.676 84.0968 47.884C84.8808 47.084 85.8848 46.684 87.1088 46.684C88.3408 46.684 89.3448 47.08 90.1208 47.872C90.8968 48.664 91.2848 49.676 91.2848 50.908C91.2848 52.1 90.8928 53.108 90.1088 53.932ZM84.8768 53.224C85.4528 53.848 86.1968 54.16 87.1088 54.16C88.0208 54.16 88.7608 53.848 89.3288 53.224C89.9048 52.592 90.1928 51.82 90.1928 50.908C90.1928 49.964 89.9088 49.192 89.3408 48.592C88.7728 47.984 88.0288 47.68 87.1088 47.68C86.1888 47.68 85.4448 47.984 84.8768 48.592C84.3088 49.192 84.0248 49.964 84.0248 50.908C84.0248 51.82 84.3088 52.592 84.8768 53.224ZM95.8168 55L95.8168 46.84H96.8968L96.8968 55H95.8168ZM99.2298 55L99.2298 46.84L102.29 46.84C103.106 46.84 103.75 47.096 104.222 47.608C104.694 48.12 104.93 48.712 104.93 49.384C104.93 50.056 104.694 50.636 104.222 51.124C103.758 51.612 103.098 51.856 102.242 51.856H100.31V55L99.2298 55ZM100.31 50.896H102.182C102.726 50.896 103.138 50.748 103.418 50.452C103.706 50.148 103.85 49.788 103.85 49.372C103.85 48.94 103.698 48.572 103.394 48.268C103.098 47.964 102.706 47.812 102.218 47.812H100.31L100.31 50.896ZM113.062 46.78H113.386L113.386 55L112.294 55V50.032C112.294 49.664 112.306 49.288 112.33 48.904C112.186 49.088 111.874 49.448 111.394 49.984L106.822 55.06H106.51L106.51 46.84H107.59L107.59 51.76C107.59 52.16 107.578 52.556 107.554 52.948C107.754 52.676 108.082 52.292 108.538 51.796L113.062 46.78ZM115.7 55L115.7 46.84H116.78L116.78 50.392L121.292 50.392L121.292 46.84L122.372 46.84L122.372 55L121.292 55V51.388L116.78 51.388V55H115.7ZM127.883 46.78L131.711 54.976V55L130.571 55L129.803 53.332L125.627 53.332L124.859 55H123.719V54.976L127.547 46.78H127.883ZM127.715 48.616C127.499 49.168 127.319 49.604 127.175 49.924L126.035 52.408L129.395 52.408L128.255 49.924C128.103 49.588 127.923 49.152 127.715 48.616Z" fill="#FEFEFE"/>
</svg>
