<svg width="200" height="94" viewBox="0 0 200 94" fill="none" xmlns="http://www.w3.org/2000/svg">
<rect width="200" height="94" fill="#10979B"/>
<mask id="path-1-inside-1_2625_3115" fill="white">
<path d="M16 16H184V56H16V16Z"/>
</mask>
<path d="M184 55H16V57H184V55Z" fill="#E8F7F7" fill-opacity="0.1" mask="url(#path-1-inside-1_2625_3115)"/>
<path d="M30.678 26.974C31.1353 27.1887 31.4993 27.506 31.77 27.926C32.05 28.346 32.19 28.8173 32.19 29.34C32.19 30.1333 31.91 30.7773 31.35 31.272C30.7993 31.7573 30.0947 32 29.236 32L25.288 32L25.288 22.48L28.97 22.48C29.7727 22.48 30.44 22.7133 30.972 23.18C31.5133 23.6467 31.784 24.244 31.784 24.972C31.784 25.8213 31.4153 26.4887 30.678 26.974ZM26.548 23.586L26.548 26.512L28.858 26.512C29.3807 26.512 29.7867 26.3813 30.076 26.12C30.3653 25.8587 30.51 25.49 30.51 25.014C30.51 24.566 30.356 24.216 30.048 23.964C29.74 23.712 29.334 23.586 28.83 23.586L26.548 23.586ZM29.11 30.894C29.6513 30.894 30.09 30.7493 30.426 30.46C30.762 30.1613 30.93 29.7553 30.93 29.242C30.93 28.7473 30.7667 28.3553 30.44 28.066C30.1133 27.7673 29.6887 27.618 29.166 27.618L26.548 27.618L26.548 30.894L29.11 30.894ZM37.9017 22.41L42.3677 31.972V32H41.0377L40.1417 30.054L35.2697 30.054L34.3737 32H33.0437V31.972L37.5097 22.41H37.9017ZM37.7057 24.552C37.4537 25.196 37.2437 25.7047 37.0757 26.078L35.7457 28.976L39.6657 28.976L38.3357 26.078C38.1583 25.686 37.9483 25.1773 37.7057 24.552ZM54.2613 22.48L55.5213 22.48L55.5213 32L43.9293 32L43.9293 22.48H45.1893L45.1893 30.838L49.0953 30.838L49.0953 22.48L50.3553 22.48L50.3553 30.838L54.2613 30.838L54.2613 22.48ZM61.9434 22.41L66.4094 31.972V32H65.0794L64.1834 30.054L59.3114 30.054L58.4154 32L57.0854 32V31.972L61.5514 22.41L61.9434 22.41ZM61.7474 24.552C61.4954 25.196 61.2854 25.7047 61.1174 26.078L59.7874 28.976L63.7074 28.976L62.3774 26.078C62.2001 25.686 61.9901 25.1773 61.7474 24.552ZM77.1095 22.48L78.4535 22.48L75.3455 29.13C74.8042 30.2593 74.2722 31.0247 73.7495 31.426C73.2269 31.8273 72.4522 32.0467 71.4255 32.084L71.3415 30.978C71.9762 30.9687 72.4755 30.8567 72.8395 30.642C73.2129 30.4273 73.5395 30.082 73.8195 29.606L70.0115 22.48L71.3695 22.48L74.4495 28.276L77.1095 22.48ZM83.6093 32.182C82.1813 32.182 81.0146 31.706 80.1093 30.754C79.2039 29.7927 78.7513 28.6167 78.7513 27.226C78.7513 25.798 79.2086 24.622 80.1233 23.698C81.0379 22.7647 82.2046 22.298 83.6233 22.298C84.9859 22.298 86.1806 22.7973 87.2073 23.796L86.4933 24.608C85.7279 23.8427 84.7759 23.46 83.6373 23.46C82.5826 23.46 81.7193 23.8193 81.0473 24.538C80.3753 25.2473 80.0393 26.1433 80.0393 27.226C80.0393 28.29 80.3753 29.1907 81.0473 29.928C81.7193 30.656 82.5779 31.02 83.6233 31.02C84.8459 31.02 85.8166 30.5253 86.5353 29.536L87.4033 30.292C86.9833 30.88 86.4466 31.342 85.7933 31.678C85.1493 32.014 84.4213 32.182 83.6093 32.182ZM98.0154 22.41L99.3874 32L98.1414 32L97.3154 26.162C97.2594 25.7607 97.2267 25.434 97.2174 25.182C97.1614 25.2753 96.97 25.574 96.6434 26.078L94.2354 29.858H93.9694L91.5474 26.078C91.286 25.6673 91.104 25.3733 91.0014 25.196C91.0014 25.2427 90.9594 25.574 90.8754 26.19L90.0494 32L88.8174 32L90.1894 22.41H90.5534L93.4934 27.002C93.792 27.4967 93.9927 27.8373 94.0954 28.024C94.17 27.8933 94.3754 27.5527 94.7114 27.002L97.6374 22.41H98.0154ZM101.549 32L101.549 22.48H102.809L102.809 32H101.549ZM115.862 22.48L117.122 22.48L117.122 32L105.53 32L105.53 22.48H106.79L106.79 30.838L110.696 30.838L110.696 22.48H111.956L111.956 30.838L115.862 30.838L115.862 22.48ZM122.326 27.212L126.75 31.958V32L125.196 32L121.094 27.618V32H119.834L119.834 22.48H121.094L121.094 26.876L124.986 22.48L126.484 22.48V22.522L122.326 27.212ZM132.093 22.41L136.559 31.972V32L135.229 32L134.333 30.054L129.461 30.054L128.565 32L127.235 32V31.972L131.701 22.41H132.093ZM131.897 24.552C131.645 25.196 131.435 25.7047 131.267 26.078L129.937 28.976L133.857 28.976L132.527 26.078C132.349 25.686 132.139 25.1773 131.897 24.552ZM140.669 29.312V28.304L144.393 28.304V29.312L140.669 29.312ZM25.288 48L25.288 38.48H26.548L26.548 42.624L31.812 42.624L31.812 38.48H33.072L33.072 48H31.812L31.812 43.786L26.548 43.786L26.548 48H25.288ZM39.5013 38.41L43.9673 47.972V48H42.6373L41.7413 46.054L36.8693 46.054L35.9733 48H34.6433V47.972L39.1093 38.41H39.5013ZM39.3053 40.552C39.0533 41.196 38.8433 41.7047 38.6753 42.078L37.3453 44.976L41.2653 44.976L39.9353 42.078C39.7579 41.686 39.5479 41.1773 39.3053 40.552ZM55.8609 38.48H57.1209L57.1209 48L45.5289 48L45.5289 38.48L46.7889 38.48L46.7889 46.838L50.6949 46.838L50.6949 38.48H51.9549L51.9549 46.838L55.8609 46.838L55.8609 38.48ZM63.543 38.41L68.009 47.972V48H66.679L65.783 46.054L60.911 46.054L60.015 48H58.685V47.972L63.151 38.41H63.543ZM63.347 40.552C63.095 41.196 62.885 41.7047 62.717 42.078L61.387 44.976L65.307 44.976L63.977 42.078C63.7997 41.686 63.5897 41.1773 63.347 40.552ZM72.7732 48L72.7732 38.48L78.5972 38.48V39.642L74.0332 39.642L74.0332 48L72.7732 48ZM87.4927 46.754C86.5781 47.706 85.4114 48.182 83.9927 48.182C82.5741 48.182 81.4027 47.706 80.4787 46.754C79.5641 45.7927 79.1067 44.6167 79.1067 43.226C79.1067 41.798 79.5641 40.622 80.4787 39.698C81.3934 38.7647 82.5647 38.298 83.9927 38.298C85.4301 38.298 86.6014 38.76 87.5067 39.684C88.4121 40.608 88.8647 41.7887 88.8647 43.226C88.8647 44.6167 88.4074 45.7927 87.4927 46.754ZM81.3887 45.928C82.0607 46.656 82.9287 47.02 83.9927 47.02C85.0567 47.02 85.9201 46.656 86.5827 45.928C87.2547 45.1907 87.5907 44.29 87.5907 43.226C87.5907 42.1247 87.2594 41.224 86.5967 40.524C85.9341 39.8147 85.0661 39.46 83.9927 39.46C82.9194 39.46 82.0514 39.8147 81.3887 40.524C80.7261 41.224 80.3947 42.1247 80.3947 43.226C80.3947 44.29 80.7261 45.1907 81.3887 45.928ZM91.0043 48L91.0043 38.48L94.5743 38.48C95.5263 38.48 96.2777 38.7787 96.8283 39.376C97.379 39.9733 97.6543 40.664 97.6543 41.448C97.6543 42.232 97.379 42.9087 96.8283 43.478C96.287 44.0473 95.517 44.332 94.5183 44.332L92.2643 44.332V48L91.0043 48ZM92.2643 43.212L94.4483 43.212C95.083 43.212 95.5637 43.0393 95.8903 42.694C96.2263 42.3393 96.3943 41.9193 96.3943 41.434C96.3943 40.93 96.217 40.5007 95.8623 40.146C95.517 39.7913 95.0597 39.614 94.4903 39.614L92.2643 39.614L92.2643 43.212ZM105.719 46.838H106.839V50.128H105.621V48L98.7049 48V50.128H97.4869V46.838H98.5649C99.1062 45.7367 99.4469 44.528 99.5869 43.212L100.091 38.48L105.719 38.48L105.719 46.838ZM100.805 43.492C100.674 44.6587 100.38 45.774 99.9229 46.838L104.459 46.838L104.459 39.642L101.211 39.642L100.805 43.492ZM108.607 48L108.607 38.48L109.867 38.48L109.867 48L108.607 48ZM116.872 48.182C115.444 48.182 114.278 47.706 113.372 46.754C112.467 45.7927 112.014 44.6167 112.014 43.226C112.014 41.798 112.472 40.622 113.386 39.698C114.301 38.7647 115.468 38.298 116.886 38.298C118.249 38.298 119.444 38.7973 120.47 39.796L119.756 40.608C118.991 39.8427 118.039 39.46 116.9 39.46C115.846 39.46 114.982 39.8193 114.31 40.538C113.638 41.2473 113.302 42.1433 113.302 43.226C113.302 44.29 113.638 45.1907 114.31 45.928C114.982 46.656 115.841 47.02 116.886 47.02C118.109 47.02 119.08 46.5253 119.798 45.536L120.666 46.292C120.246 46.88 119.71 47.342 119.056 47.678C118.412 48.014 117.684 48.182 116.872 48.182ZM128.329 38.48V39.642L125.515 39.642L125.515 48H124.255L124.255 39.642H121.455V38.48L128.329 38.48ZM133.736 42.274C134.585 42.274 135.304 42.5447 135.892 43.086C136.48 43.6273 136.774 44.3133 136.774 45.144C136.774 45.9653 136.48 46.6467 135.892 47.188C135.304 47.7293 134.585 48 133.736 48L130.054 48L130.054 38.48L131.314 38.48V42.274H133.736ZM133.666 46.866C134.207 46.866 134.646 46.712 134.982 46.404C135.327 46.096 135.5 45.676 135.5 45.144C135.5 44.6027 135.327 44.178 134.982 43.87C134.646 43.562 134.207 43.408 133.666 43.408H131.314V46.866H133.666ZM138.644 45.592L138.518 38.48L139.876 38.48L139.75 45.592L138.644 45.592ZM139.19 48.154C138.966 48.154 138.77 48.084 138.602 47.944C138.443 47.804 138.364 47.6033 138.364 47.342C138.364 47.0807 138.443 46.88 138.602 46.74C138.77 46.6 138.966 46.53 139.19 46.53C139.423 46.53 139.619 46.6 139.778 46.74C139.937 46.88 140.016 47.0807 140.016 47.342C140.016 47.6033 139.937 47.804 139.778 47.944C139.619 48.084 139.423 48.154 139.19 48.154Z" fill="#FEFEFE"/>
<path d="M25.104 71L25.104 62.84L31.44 62.84L31.44 71H30.36L30.36 63.836L26.184 63.836L26.184 71H25.104ZM33.767 71L33.767 62.84L36.827 62.84C37.643 62.84 38.287 63.096 38.759 63.608C39.231 64.12 39.467 64.712 39.467 65.384C39.467 66.056 39.231 66.636 38.759 67.124C38.295 67.612 37.635 67.856 36.779 67.856H34.847V71H33.767ZM34.847 66.896H36.719C37.263 66.896 37.675 66.748 37.955 66.452C38.243 66.148 38.387 65.788 38.387 65.372C38.387 64.94 38.235 64.572 37.931 64.268C37.635 63.964 37.243 63.812 36.755 63.812L34.847 63.812L34.847 66.896ZM47.7431 69.932C46.9591 70.748 45.9591 71.156 44.7431 71.156C43.5271 71.156 42.5231 70.748 41.7311 69.932C40.9471 69.108 40.5551 68.1 40.5551 66.908C40.5551 65.684 40.9471 64.676 41.7311 63.884C42.5151 63.084 43.5191 62.684 44.7431 62.684C45.9751 62.684 46.9791 63.08 47.7551 63.872C48.5311 64.664 48.9191 65.676 48.9191 66.908C48.9191 68.1 48.5271 69.108 47.7431 69.932ZM42.5111 69.224C43.0871 69.848 43.8311 70.16 44.7431 70.16C45.6551 70.16 46.3951 69.848 46.9631 69.224C47.5391 68.592 47.8271 67.82 47.8271 66.908C47.8271 65.964 47.5431 65.192 46.9751 64.592C46.4071 63.984 45.6631 63.68 44.7431 63.68C43.8231 63.68 43.0791 63.984 42.5111 64.592C41.9431 65.192 41.6591 65.964 41.6591 66.908C41.6591 67.82 41.9431 68.592 42.5111 69.224ZM55.78 66.896L59.284 70.964V71H58L54.832 67.316V71H53.74V67.316L50.572 71H49.288V70.964L52.792 66.896L49.396 62.876V62.84H50.656L53.74 66.536L53.74 62.84L54.832 62.84L54.832 66.524L57.916 62.84L59.164 62.84V62.876L55.78 66.896ZM61.6796 70.028H65.7116V71H60.5996L60.5996 62.84L65.6036 62.84V63.812L61.6796 63.812V66.356H65.1356L65.1356 67.304H61.6796V70.028ZM71.1305 62.072C70.2505 62.072 69.6265 61.72 69.2585 61.016L69.8945 60.56C70.1985 61.008 70.6105 61.232 71.1305 61.232C71.6585 61.232 72.0745 61.008 72.3785 60.56L73.0145 61.016C72.6465 61.72 72.0185 62.072 71.1305 62.072ZM73.9865 62.78H74.3105L74.3105 71L73.2185 71L73.2185 66.032C73.2185 65.664 73.2305 65.288 73.2545 64.904C73.1105 65.088 72.7985 65.448 72.3185 65.984L67.7465 71.06H67.4345L67.4345 62.84H68.5145L68.5145 67.76C68.5145 68.16 68.5025 68.556 68.4785 68.948C68.6785 68.676 69.0065 68.292 69.4625 67.796L73.9865 62.78ZM78.7608 66.896L82.5528 70.964V71H81.2208L77.7048 67.244V71H76.6248L76.6248 62.84H77.7048V66.608L81.0408 62.84L82.3248 62.84V62.876L78.7608 66.896ZM90.1088 69.932C89.3248 70.748 88.3248 71.156 87.1088 71.156C85.8928 71.156 84.8888 70.748 84.0968 69.932C83.3128 69.108 82.9208 68.1 82.9208 66.908C82.9208 65.684 83.3128 64.676 84.0968 63.884C84.8808 63.084 85.8848 62.684 87.1088 62.684C88.3408 62.684 89.3448 63.08 90.1208 63.872C90.8968 64.664 91.2848 65.676 91.2848 66.908C91.2848 68.1 90.8928 69.108 90.1088 69.932ZM84.8768 69.224C85.4528 69.848 86.1968 70.16 87.1088 70.16C88.0208 70.16 88.7608 69.848 89.3288 69.224C89.9048 68.592 90.1928 67.82 90.1928 66.908C90.1928 65.964 89.9088 65.192 89.3408 64.592C88.7728 63.984 88.0288 63.68 87.1088 63.68C86.1888 63.68 85.4448 63.984 84.8768 64.592C84.3088 65.192 84.0248 65.964 84.0248 66.908C84.0248 67.82 84.3088 68.592 84.8768 69.224ZM99.4888 71.156C98.2648 71.156 97.2648 70.748 96.4888 69.932C95.7128 69.108 95.3248 68.1 95.3248 66.908C95.3248 65.684 95.7168 64.676 96.5008 63.884C97.2848 63.084 98.2848 62.684 99.5008 62.684C100.669 62.684 101.693 63.112 102.573 63.968L101.961 64.664C101.305 64.008 100.489 63.68 99.5128 63.68C98.6088 63.68 97.8688 63.988 97.2928 64.604C96.7168 65.212 96.4288 65.98 96.4288 66.908C96.4288 67.82 96.7168 68.592 97.2928 69.224C97.8688 69.848 98.6048 70.16 99.5008 70.16C100.549 70.16 101.381 69.736 101.997 68.888L102.741 69.536C102.381 70.04 101.921 70.436 101.361 70.724C100.809 71.012 100.185 71.156 99.4888 71.156ZM105.349 70.028H109.381V71H104.269L104.269 62.84L109.273 62.84V63.812L105.349 63.812L105.349 66.356H108.805V67.304H105.349V70.028ZM111.104 71L111.104 62.84L114.164 62.84C114.98 62.84 115.624 63.096 116.096 63.608C116.568 64.12 116.804 64.712 116.804 65.384C116.804 66.056 116.568 66.636 116.096 67.124C115.632 67.612 114.972 67.856 114.116 67.856H112.184V71H111.104ZM112.184 66.896H114.056C114.6 66.896 115.012 66.748 115.292 66.452C115.58 66.148 115.724 65.788 115.724 65.372C115.724 64.94 115.572 64.572 115.268 64.268C114.972 63.964 114.58 63.812 114.092 63.812L112.184 63.812L112.184 66.896ZM118.384 71L118.384 62.84L123.376 62.84V63.836L119.464 63.836L119.464 71H118.384ZM124.832 71L124.832 62.84H125.912L125.912 71H124.832ZM131.941 62.072C131.061 62.072 130.437 61.72 130.069 61.016L130.705 60.56C131.009 61.008 131.421 61.232 131.941 61.232C132.469 61.232 132.885 61.008 133.189 60.56L133.825 61.016C133.457 61.72 132.829 62.072 131.941 62.072ZM134.797 62.78H135.121V71H134.029V66.032C134.029 65.664 134.041 65.288 134.065 64.904C133.921 65.088 133.609 65.448 133.129 65.984L128.557 71.06H128.245V62.84H129.325V67.76C129.325 68.16 129.313 68.556 129.289 68.948C129.489 68.676 129.817 68.292 130.273 67.796L134.797 62.78Z" fill="#FEFEFE"/>
</svg>
