<svg width="32" height="32" viewBox="0 0 32 32" fill="none" xmlns="http://www.w3.org/2000/svg">
<rect x="0.5" y="0.5" width="31" height="31" rx="15.5" stroke="#FEFEFE"/>
<g clip-path="url(#clip0_2331_2341)">
<path d="M22.5548 11.8536C22.0415 11.2433 21.0936 10.9944 19.2835 10.9944H12.7126C10.861 10.9944 9.89706 11.2594 9.38561 11.9091C8.88696 12.5426 8.88696 13.476 8.88696 14.7678V17.2301C8.88696 19.7327 9.47861 21.0034 12.7126 21.0034H19.2835C20.8533 21.0034 21.7231 20.7838 22.2859 20.2452C22.863 19.6929 23.1092 18.7912 23.1092 17.2301V14.7678C23.1092 13.4055 23.0706 12.4666 22.5548 11.8536ZM18.0177 16.3389L15.0339 17.8983C14.9639 17.9349 14.8858 17.9528 14.8069 17.9504C14.728 17.9479 14.6511 17.9251 14.5836 17.8842C14.5161 17.8433 14.4603 17.7857 14.4216 17.717C14.3828 17.6482 14.3625 17.5706 14.3626 17.4917V14.3828C14.3626 14.304 14.3829 14.2265 14.4215 14.1579C14.4601 14.0892 14.5158 14.0316 14.5832 13.9907C14.6505 13.9498 14.7273 13.9269 14.806 13.9243C14.8848 13.9217 14.9629 13.9394 15.0328 13.9757L18.0166 15.5251C18.0911 15.5637 18.1535 15.6221 18.1971 15.6938C18.2408 15.7655 18.2639 15.8477 18.264 15.9317C18.2641 16.0156 18.2412 16.0979 18.1978 16.1697C18.1543 16.2415 18.092 16.3 18.0177 16.3389Z" fill="#FEFEFE"/>
</g>
<defs>
<clipPath id="clip0_2331_2341">
<rect width="14.2222" height="14.2222" fill="white" transform="translate(8.88892 8.88892)"/>
</clipPath>
</defs>
</svg>
