<svg xmlns="http://www.w3.org/2000/svg" fill="currentColor">
    <symbol id="map-marker" viewBox="0 0 24 24">
        <path d="M22 10.2738C22 18.4881 12 23.4166 12 23.4166C12 23.4166 2 18.4881 2 10.2738C2 4.82991 6.47715 0.416748 12 0.416748C17.5228 0.416748 22 4.82991 22 10.2738Z" fill="#FEFEFE"/>
        <path d="M17.9527 11.8463C18.2208 11.9171 18.3817 12.1936 18.2886 12.4548C17.8114 13.7917 16.9065 14.9456 15.7035 15.7379C14.3587 16.6237 12.7331 16.9973 11.1295 16.7892C9.52595 16.5811 8.05383 15.8055 6.98741 14.6068C6.03285 13.5339 5.46162 12.1876 5.35229 10.7736C5.331 10.4982 5.55687 10.274 5.83301 10.274C6.10915 10.274 6.33065 10.4983 6.35569 10.7734C6.46261 11.9479 6.9447 13.0639 7.73925 13.9569C8.6457 14.9758 9.89701 15.635 11.26 15.8119C12.623 15.9888 14.0048 15.6712 15.1479 14.9183C16.1512 14.2575 16.9106 13.301 17.3219 12.1918C17.4173 11.9345 17.6874 11.7763 17.9527 11.8463Z" fill="#10979B"/>
        <path d="M18.1663 10.274C18.4425 10.274 18.6683 10.4982 18.6471 10.7735C18.6457 10.7909 18.6443 10.8082 18.6428 10.8256C18.6194 11.0997 18.3618 11.2843 18.0901 11.2412L18.0358 11.2326C17.7923 11.1939 17.6284 10.9645 17.6484 10.7186C17.6682 10.4736 17.8656 10.274 18.1115 10.274H18.1663Z" fill="#10979B"/>
    </symbol>

    <symbol id="clock" viewBox="0 0 25 24">
        <path d="M12.5 22C18.023 22 22.5 17.523 22.5 12C22.5 6.477 18.023 2 12.5 2C6.977 2 2.5 6.477 2.5 12C2.5 17.523 6.977 22 12.5 22Z" fill="white" stroke="white" stroke-width="2" stroke-linejoin="round"/>
        <path d="M12.504 6V12.005L16.7435 16.245" fill="#10979B" stroke="#10979B" stroke-width="2" stroke-linecap="round" stroke-linejoin="round"/>
    </symbol>

    <symbol id="phone" viewBox="0 0 16 16">
        <path d="M15.7646 8C15.7646 4.20304 12.6865 1.12502 8.88959 1.12502" fill="#10979B"/>
        <path d="M10.7646 8C10.7646 6.96447 9.92512 6.12501 8.88959 6.12501" fill="#10979B"/>
        <path d="M13.2646 8C13.2646 5.58376 11.3058 3.62501 8.88959 3.62501" fill="#10979B"/>
        <path d="M10.2412 10.2265L9.09273 11.375C9.09273 11.375 8.25152 11.1492 6.99862 9.89636C5.74575 8.64346 5.51459 7.77527 5.51459 7.77527L6.65227 6.63759L3.23338 3.21869L1.01463 5.43743C1.01463 5.43743 0.959947 8.67961 4.59275 12.3124C8.22555 15.9452 11.3896 15.8749 11.3896 15.8749L13.6396 13.6249L10.2412 10.2265Z" fill="#10979B"/>
    </symbol>

    <symbol id="email" viewBox="0 0 16 16">
        <path d="M14.5605 14.125H0.439453V2.87503H14.5605V14.125Z" fill="#10979B"/>
        <path d="M0.439453 2.87502L7.5 10.375L14.5605 2.87502" stroke="#FEFEFE" stroke-miterlimit="10" fill="#10979B"/>
    </symbol>

    <symbol id="location" viewBox="0 0 16 16">
        <path d="M7.99999 15.9688C7.99999 15.9688 14.2206 12.3214 14.2206 7.18937C14.2206 3.75385 11.4355 0.968794 7.99999 0.968794C4.56447 0.968794 1.77942 3.75385 1.77942 7.18937C1.77942 12.3214 7.99999 15.9688 7.99999 15.9688Z" fill="#10979B"/>
        <path d="M10.2628 7.09326C10.2628 8.34263 9.24999 9.35547 8.00062 9.35547C6.75121 9.35547 5.7384 8.34263 5.7384 7.09326C5.7384 5.84389 6.75121 4.83105 8.00062 4.83105C9.24999 4.83105 10.2628 5.84389 10.2628 7.09326Z" stroke="#FEFEFE" stroke-miterlimit="10" fill="#10979B"/>
    </symbol>

    <symbol id="arrow-right" viewBox="0 0 18 18">
        <path d="M17 9H1M17 9L9 1M17 9L9 17" stroke="currentColor" stroke-linecap="round" stroke-linejoin="round"/>
    </symbol>

    <symbol id="check" viewBox="0 0 10 8">
        <path d="M1 4.00004L3.66667 6.66671L9 1.33337" stroke="#10979B" stroke-width="2" stroke-linecap="round" stroke-linejoin="round" fill="none"/>
    </symbol>

    <symbol id="play" viewBox="0 0 80 80">
        <path d="M72.0429 58.5C73.4778 59.3284 73.9786 61.1708 73.045 62.5396C68.6728 68.9498 62.5158 73.9693 55.3073 76.9552C47.1722 80.3249 38.1526 80.916 29.6472 78.637C21.1419 76.358 13.6262 71.3362 8.26587 64.3505C3.51607 58.1604 0.693748 50.7348 0.112424 42.9974C-0.0117077 41.3452 1.34315 40 3 40C4.65685 40 5.98625 41.3458 6.13224 42.9963C6.6997 49.4113 9.08051 55.5561 13.026 60.6979C17.5823 66.6358 23.9706 70.9043 31.2002 72.8415C38.4297 74.7786 46.0964 74.2761 53.0112 71.4119C58.999 68.9317 64.1333 64.8006 67.8322 59.5287C68.7839 58.1724 70.6081 57.6716 72.0429 58.5Z" fill="#10979B"/>
        <path d="M32.4171 31.4179C31 32.6163 31 35.0775 31 40C31 44.9225 31 47.3837 32.4171 48.5821C32.7198 48.8381 33.0589 49.0477 33.4233 49.204C35.1289 49.9355 37.3303 48.8348 41.7331 46.6334C47.0274 43.9863 49.6746 42.6627 50.0037 40.6433C50.0731 40.2172 50.0731 39.7828 50.0037 39.3567C49.6746 37.3373 47.0274 36.0137 41.7331 33.3666C37.3303 31.1652 35.1289 30.0645 33.4233 30.796C33.0589 30.9523 32.7198 31.1619 32.4171 31.4179Z" fill="#10979B"/>
    </symbol>

    <symbol id="viber" viewBox="0 0 16 17">
        <path d="M9.55593 1H6.44468C3.42917 1 1 3.42917 1 6.44468V8.77812C1 10.8842 2.2086 12.7988 4.11125 13.6963V16.3049C4.11125 16.4366 4.23091 16.5562 4.38647 16.5562C4.44631 16.5562 4.5181 16.5323 4.56597 16.4844L6.81564 14.2228H9.55593C12.5715 14.2228 15.0006 11.7936 15.0006 8.77812V6.44468C15.0006 3.42917 12.5715 1 9.55593 1ZM11.6022 11.2073L10.8244 11.9851C9.98672 12.7988 7.83278 11.8654 5.93013 9.92689C4.02748 7.98834 3.17787 5.7985 3.97962 4.98479L4.75743 4.20698C5.06856 3.91979 5.55918 3.93175 5.8703 4.23091L6.99514 5.40361C7.28233 5.71474 7.28233 6.18143 6.9712 6.49255C6.88744 6.57631 6.79171 6.62418 6.68401 6.67205C6.28912 6.79171 6.08569 7.17463 6.18143 7.56952C6.37289 8.4311 7.46182 9.50807 8.2875 9.72346C8.67042 9.81919 9.06531 9.6038 9.19694 9.23284C9.32857 8.84992 9.75936 8.63453 10.1662 8.76615C10.2859 8.80205 10.3816 8.88582 10.4773 8.95762L11.6022 10.1303C11.8894 10.4175 11.8894 10.8962 11.6022 11.2073ZM8.69436 4.6976C8.61059 4.6976 8.53879 4.6976 8.467 4.72153C8.33537 4.74546 8.19177 4.63777 8.1798 4.4822C8.16784 4.32664 8.26357 4.20698 8.40716 4.19501C8.50289 4.17108 8.59863 4.17108 8.69436 4.17108C10.1303 4.17108 11.2791 5.34378 11.303 6.75581C11.303 6.85154 11.303 6.94727 11.2791 7.043C11.2552 7.17463 11.1475 7.2943 10.9919 7.27036C10.8363 7.24643 10.7406 7.13873 10.7645 6.98317C10.7645 6.89941 10.7885 6.82761 10.7885 6.75581C10.7765 5.63097 9.84313 4.6976 8.69436 4.6976ZM10.25 6.77974C10.226 6.91137 10.1184 7.03104 9.96279 7.0071C9.84313 6.98317 9.73543 6.88744 9.73543 6.77974C9.73543 6.21732 9.26874 5.75064 8.70632 5.75064C8.57469 5.77457 8.4311 5.65491 8.41913 5.51131C8.3952 5.37968 8.51486 5.23608 8.64649 5.22412H8.68239C9.57987 5.22412 10.25 5.91817 10.25 6.77974ZM12.2364 7.60542C12.2125 7.73705 12.0808 7.83278 11.9492 7.82081C11.8176 7.80885 11.7218 7.66525 11.7338 7.53362V7.49772C11.7936 7.27036 11.8176 7.03104 11.8176 6.77974C11.8176 5.06856 10.4175 3.66849 8.70632 3.66849H8.47896C8.34733 3.69243 8.20374 3.57276 8.20374 3.42917C8.1798 3.29754 8.29947 3.15394 8.4311 3.15394C8.52683 3.15394 8.62256 3.13001 8.70632 3.13001C10.7047 3.13001 12.3441 4.75743 12.3441 6.76778C12.3321 7.043 12.2962 7.34216 12.2364 7.60542Z" fill="#10979B"/>
    </symbol>

    <symbol id="telegram" viewBox="0 0 16 17">
        <path d="M6.278 11.1206L6.01333 14.8433C6.392 14.8433 6.556 14.6806 6.75266 14.4853L8.528 12.7886L12.2067 15.4826C12.8813 15.8586 13.3567 15.6606 13.5387 14.8619L15.9533 3.54728L15.954 3.54661C16.168 2.54928 15.5933 2.15928 14.936 2.40394L0.742663 7.83794C-0.226003 8.21394 -0.211337 8.75394 0.577996 8.99861L4.20666 10.1273L12.6353 4.85328C13.032 4.59061 13.3927 4.73594 13.096 4.99861L6.278 11.1206Z" fill="#10979B"/>
    </symbol>

    <symbol id="card-logo" viewBox="0 0 125 88">
        <path d="M121 25.5C123.209 25.5 125.013 27.2927 124.872 29.4973C124.434 36.3375 122.872 43.0685 120.242 49.4177C117.102 57.0006 112.498 63.8905 106.694 69.6942C100.891 75.4978 94.0006 80.1016 86.4177 83.2425C78.8349 86.3834 70.7076 88 62.5 88C54.2924 88 46.1651 86.3834 38.5823 83.2425C30.9994 80.1015 24.1095 75.4978 18.3058 69.6942C12.5022 63.8905 7.89845 57.0006 4.75753 49.4177C2.12758 43.0685 0.566328 36.3375 0.127955 29.4973C-0.0133333 27.2927 1.79086 25.5 4 25.5H5.375C7.58414 25.5 9.35934 27.2934 9.52552 29.4963C9.94858 35.1044 11.2602 40.6185 13.4189 45.8301C16.0887 52.2755 20.0018 58.1319 24.9349 63.065C29.8681 67.9982 35.7245 71.9113 42.1699 74.5811C48.6154 77.2509 55.5235 78.625 62.5 78.625C69.4765 78.625 76.3846 77.2509 82.8301 74.5811C89.2755 71.9113 95.1319 67.9982 100.065 63.065C104.998 58.1319 108.911 52.2755 111.581 45.8301C113.74 40.6185 115.051 35.1044 115.474 29.4963C115.641 27.2934 117.416 25.5 119.625 25.5H121Z" fill="#10979B"/>
        <path d="M119.007 10.3591C121.141 9.78733 123.347 11.0519 123.781 13.218C123.934 13.9788 124.072 14.7423 124.196 15.5082C124.549 17.689 122.926 19.6472 120.728 19.8602L119.359 19.9928C117.16 20.2057 115.22 18.5919 114.842 16.4153C114.798 16.1596 114.752 15.9043 114.704 15.6493C114.294 13.4784 115.545 11.2867 117.679 10.715L119.007 10.3591Z" fill="#10979B"/>
    </symbol>

    <symbol id="angle-up" viewBox="0 0 18 10">
        <path d="M1 9L9 1L17 9" stroke="#292929" stroke-width="2" stroke-linecap="round" stroke-linejoin="round" fill="none"/>
    </symbol>

    <symbol id="close" viewBox="0 0 18 18">
        <path d="M9 9L1 1M9 9L1 17M9 9L17 1M9 9L17 17" stroke="#292929" stroke-width="2" stroke-linecap="round" stroke-linejoin="round"/>
    </symbol>

    <symbol id="angle-right" viewBox="0 0 10 18">
        <path d="M1 1L9 9L1 17" stroke="#292929" stroke-width="2" stroke-linecap="round" stroke-linejoin="round" fill="none"/>
    </symbol>

    <symbol id="angle-left" viewBox="0 0 10 18">
        <path d="M9 1L1 9L9 17" stroke="#292929" stroke-width="2" stroke-linecap="round" stroke-linejoin="round" fill="none"/>
    </symbol>

    <symbol id="instagram" viewBox="0 0 24 24">
        <rect width="24" height="24" rx="4" fill="#10979B"/>
        <path d="M12.0002 9.0625C10.3807 9.0625 9.06519 10.378 9.06519 11.9975C9.06519 13.6171 10.3807 14.9358 12.0002 14.9358C13.6198 14.9358 14.9385 13.6171 14.9385 11.9975C14.9385 10.378 13.6198 9.0625 12.0002 9.0625Z" fill="#FEFEFE"/>
        <path d="M16.4288 4H7.5712C5.6032 4 4 5.6032 4 7.5712V16.4288C4 18.4 5.6032 20 7.5712 20H16.4288C18.4 20 20 18.4 20 16.4288V7.5712C20 5.6032 18.4 4 16.4288 4ZM12 17.184C9.1424 17.184 6.816 14.8576 6.816 12C6.816 9.1424 9.1424 6.8192 12 6.8192C14.8576 6.8192 17.184 9.1424 17.184 12C17.184 14.8576 14.8576 17.184 12 17.184ZM17.2928 7.76C16.688 7.76 16.1952 7.2704 16.1952 6.6656C16.1952 6.0608 16.688 5.568 17.2928 5.568C17.8976 5.568 18.3904 6.0608 18.3904 6.6656C18.3904 7.2704 17.8976 7.76 17.2928 7.76Z" fill="#FEFEFE"/>
    </symbol>


    <symbol id="test" viewBox="0 0 295 203">
        <path d="M108.625 106.515H116.099M116.099 106.515C114.567 102.944 113.486 99.9185 113.486 97.872C113.486 91.1494 119.319 79.625 129.042 79.625C138.764 79.625 136.819 86.3476 148.486 86.3476C159.181 86.3476 161.125 79.625 166.958 79.625C172.792 79.625 184.458 87.3079 184.458 97.872C184.458 100.585 183.817 103.488 182.831 106.515M116.099 106.515C119.598 114.675 125.449 125.682 126.125 134.366C127.097 146.851 128.069 158.375 135.847 158.375C143.625 158.375 139.736 128.604 148.486 128.604C157.236 128.604 154.319 158.375 161.125 158.375C167.931 158.375 170.847 146.851 172.792 134.366C174.237 125.087 179.978 115.278 182.831 106.515M116.099 106.515H135.847M135.847 106.515V116.119L139.736 119.96H157.236L161.125 116.119V106.515M135.847 106.515V97.872L139.736 94.0305H157.236L161.125 97.872V106.515M135.847 106.515H143.625M187.375 106.515H182.831M182.831 106.515H161.125M161.125 106.515H153.347M153.347 106.515V102.674H143.625V106.515M153.347 106.515V112.277H143.625V106.515" stroke="#10979B" stroke-width="2.625" stroke-linejoin="round"/>
        <path d="M110.631 75.2627L109.207 75.732L110.631 80.057L112.056 75.732L110.631 75.2627ZM122.263 63.6313L122.732 65.056L127.057 63.6313L122.732 62.2066L122.263 63.6313ZM99 63.6314L98.5307 62.2067L94.2058 63.6314L98.5307 65.056L99 63.6314ZM110.631 52L112.056 51.5307L110.631 47.2057L109.207 51.5307L110.631 52ZM112.056 75.732C113.714 70.6973 117.697 66.7145 122.732 65.056L121.793 62.2066C115.855 64.1629 111.163 68.8547 109.207 74.7934L112.056 75.732ZM98.5307 65.056C103.565 66.7145 107.548 70.6973 109.207 75.732L112.056 74.7934C110.1 68.8548 105.408 64.1629 99.4693 62.2067L98.5307 65.056ZM109.207 51.5307C107.548 56.5654 103.565 60.5482 98.5307 62.2067L99.4693 65.056C105.408 63.0998 110.1 58.4079 112.056 52.4693L109.207 51.5307ZM122.732 62.2066C117.697 60.5482 113.714 56.5654 112.056 51.5307L109.207 52.4693C111.163 58.4079 115.855 63.0998 121.793 65.056L122.732 62.2066Z" fill="#10979B"/>
        <path d="M158 24.1313L157.531 22.7066L153.206 24.1313L157.531 25.556L158 24.1313ZM164.131 17.9999L165.556 17.5306L164.131 13.2055L162.707 17.5306L164.131 17.9999ZM164.131 30.2626L162.707 30.7319L164.131 35.0569L165.556 30.7319L164.131 30.2626ZM170.263 24.1313L170.732 25.556L175.057 24.1313L170.732 22.7066L170.263 24.1313ZM158.469 25.556C161.813 24.4544 164.454 21.8134 165.556 18.4692L162.707 17.5306C161.903 19.9709 159.971 21.9027 157.531 22.7066L158.469 25.556ZM165.556 29.7933C164.454 26.4491 161.813 23.8082 158.469 22.7066L157.531 25.556C159.971 26.3598 161.903 28.2917 162.707 30.7319L165.556 29.7933ZM169.793 22.7066C166.449 23.8082 163.808 26.4491 162.707 29.7933L165.556 30.7319C166.36 28.2917 168.292 26.3598 170.732 25.556L169.793 22.7066ZM162.707 18.4692C163.808 21.8134 166.449 24.4544 169.793 25.556L170.732 22.7066C168.292 21.9028 166.36 19.9709 165.556 17.5306L162.707 18.4692Z" fill="#10979B"/>
        <path d="M190 145.5L189.53 144.075L185.205 145.5L189.53 146.925L190 145.5ZM199.5 136L200.925 135.53L199.5 131.205L198.075 135.53L199.5 136ZM199.5 155L198.075 155.469L199.5 159.795L200.925 155.469L199.5 155ZM209 145.5L209.469 146.925L213.795 145.5L209.469 144.075L209 145.5ZM190.469 146.925C195.402 145.3 199.3 141.402 200.925 136.469L198.075 135.53C196.748 139.56 193.56 142.748 189.53 144.075L190.469 146.925ZM200.925 154.531C199.3 149.597 195.402 145.7 190.469 144.075L189.53 146.925C193.56 148.252 196.748 151.44 198.075 155.469L200.925 154.531ZM208.531 144.075C203.597 145.7 199.7 149.597 198.075 154.531L200.925 155.469C202.252 151.44 205.44 148.252 209.469 146.925L208.531 144.075ZM198.075 136.469C199.7 141.402 203.597 145.3 208.531 146.925L209.469 144.075C205.44 142.748 202.252 139.56 200.925 135.53L198.075 136.469Z" fill="#10979B"/>
        <path d="M125 180.5L124.531 179.075L120.205 180.5L124.531 181.925L125 180.5ZM129.5 176L130.925 175.531L129.5 171.205L128.076 175.531L129.5 176ZM129.5 185L128.076 185.47L129.5 189.795L130.925 185.47L129.5 185ZM134.001 180.5L134.47 181.925L138.795 180.5L134.47 179.075L134.001 180.5ZM125.469 181.925C128.044 181.077 130.077 179.044 130.925 176.469L128.076 175.531C127.525 177.202 126.202 178.525 124.531 179.075L125.469 181.925ZM130.925 184.531C130.077 181.956 128.044 179.923 125.469 179.075L124.531 181.925C126.202 182.475 127.525 183.799 128.076 185.47L130.925 184.531ZM133.531 179.075C130.956 179.924 128.924 181.956 128.076 184.531L130.925 185.47C131.475 183.799 132.799 182.475 134.47 181.925L133.531 179.075ZM128.076 176.469C128.924 179.044 130.956 181.077 133.531 181.925L134.47 179.075C132.799 178.525 131.475 177.202 130.925 175.531L128.076 176.469Z" fill="#10979B"/>
    </symbol>

</svg>