<svg xmlns="http://www.w3.org/2000/svg" fill="currentColor">
    <symbol id="map-marker" viewBox="0 0 24 24">
        <path d="M22 10.2738C22 18.4881 12 23.4166 12 23.4166C12 23.4166 2 18.4881 2 10.2738C2 4.82991 6.47715 0.416748 12 0.416748C17.5228 0.416748 22 4.82991 22 10.2738Z" fill="#FEFEFE"/>
        <path d="M17.9527 11.8463C18.2208 11.9171 18.3817 12.1936 18.2886 12.4548C17.8114 13.7917 16.9065 14.9456 15.7035 15.7379C14.3587 16.6237 12.7331 16.9973 11.1295 16.7892C9.52595 16.5811 8.05383 15.8055 6.98741 14.6068C6.03285 13.5339 5.46162 12.1876 5.35229 10.7736C5.331 10.4982 5.55687 10.274 5.83301 10.274C6.10915 10.274 6.33065 10.4983 6.35569 10.7734C6.46261 11.9479 6.9447 13.0639 7.73925 13.9569C8.6457 14.9758 9.89701 15.635 11.26 15.8119C12.623 15.9888 14.0048 15.6712 15.1479 14.9183C16.1512 14.2575 16.9106 13.301 17.3219 12.1918C17.4173 11.9345 17.6874 11.7763 17.9527 11.8463Z" fill="#10979B"/>
        <path d="M18.1663 10.274C18.4425 10.274 18.6683 10.4982 18.6471 10.7735C18.6457 10.7909 18.6443 10.8082 18.6428 10.8256C18.6194 11.0997 18.3618 11.2843 18.0901 11.2412L18.0358 11.2326C17.7923 11.1939 17.6284 10.9645 17.6484 10.7186C17.6682 10.4736 17.8656 10.274 18.1115 10.274H18.1663Z" fill="#10979B"/>
    </symbol>

    <symbol id="clock" viewBox="0 0 25 24">
        <path d="M12.5 22C18.023 22 22.5 17.523 22.5 12C22.5 6.477 18.023 2 12.5 2C6.977 2 2.5 6.477 2.5 12C2.5 17.523 6.977 22 12.5 22Z" fill="white" stroke="white" stroke-width="2" stroke-linejoin="round"/>
        <path d="M12.504 6V12.005L16.7435 16.245" fill="#10979B" stroke="#10979B" stroke-width="2" stroke-linecap="round" stroke-linejoin="round"/>
    </symbol>

    <symbol id="phone" viewBox="0 0 16 16">
        <path d="M15.7646 8C15.7646 4.20304 12.6865 1.12502 8.88959 1.12502" fill="#10979B"/>
        <path d="M10.7646 8C10.7646 6.96447 9.92512 6.12501 8.88959 6.12501" fill="#10979B"/>
        <path d="M13.2646 8C13.2646 5.58376 11.3058 3.62501 8.88959 3.62501" fill="#10979B"/>
        <path d="M10.2412 10.2265L9.09273 11.375C9.09273 11.375 8.25152 11.1492 6.99862 9.89636C5.74575 8.64346 5.51459 7.77527 5.51459 7.77527L6.65227 6.63759L3.23338 3.21869L1.01463 5.43743C1.01463 5.43743 0.959947 8.67961 4.59275 12.3124C8.22555 15.9452 11.3896 15.8749 11.3896 15.8749L13.6396 13.6249L10.2412 10.2265Z" fill="#10979B"/>
    </symbol>

    <symbol id="email" viewBox="0 0 16 16">
        <path d="M14.5605 14.125H0.439453V2.87503H14.5605V14.125Z" fill="#10979B"/>
        <path d="M0.439453 2.87502L7.5 10.375L14.5605 2.87502" stroke="#FEFEFE" stroke-miterlimit="10" fill="#10979B"/>
    </symbol>

    <symbol id="location" viewBox="0 0 16 16">
        <path d="M7.99999 15.9688C7.99999 15.9688 14.2206 12.3214 14.2206 7.18937C14.2206 3.75385 11.4355 0.968794 7.99999 0.968794C4.56447 0.968794 1.77942 3.75385 1.77942 7.18937C1.77942 12.3214 7.99999 15.9688 7.99999 15.9688Z" fill="#10979B"/>
        <path d="M10.2628 7.09326C10.2628 8.34263 9.24999 9.35547 8.00062 9.35547C6.75121 9.35547 5.7384 8.34263 5.7384 7.09326C5.7384 5.84389 6.75121 4.83105 8.00062 4.83105C9.24999 4.83105 10.2628 5.84389 10.2628 7.09326Z" stroke="#FEFEFE" stroke-miterlimit="10" fill="#10979B"/>
    </symbol>

    <symbol id="arrow-right" viewBox="0 0 18 18">
        <path d="M17 9H1M17 9L9 1M17 9L9 17" stroke="currentColor" stroke-linecap="round" stroke-linejoin="round"/>
    </symbol>

    <symbol id="check" viewBox="0 0 10 8">
        <path d="M1 4.00004L3.66667 6.66671L9 1.33337" stroke="#10979B" stroke-width="2" stroke-linecap="round" stroke-linejoin="round" fill="none"/>
    </symbol>

    <symbol id="play" viewBox="0 0 80 80">
        <path d="M72.0429 58.5C73.4778 59.3284 73.9786 61.1708 73.045 62.5396C68.6728 68.9498 62.5158 73.9693 55.3073 76.9552C47.1722 80.3249 38.1526 80.916 29.6472 78.637C21.1419 76.358 13.6262 71.3362 8.26587 64.3505C3.51607 58.1604 0.693748 50.7348 0.112424 42.9974C-0.0117077 41.3452 1.34315 40 3 40C4.65685 40 5.98625 41.3458 6.13224 42.9963C6.6997 49.4113 9.08051 55.5561 13.026 60.6979C17.5823 66.6358 23.9706 70.9043 31.2002 72.8415C38.4297 74.7786 46.0964 74.2761 53.0112 71.4119C58.999 68.9317 64.1333 64.8006 67.8322 59.5287C68.7839 58.1724 70.6081 57.6716 72.0429 58.5Z" fill="#10979B"/>
        <path d="M32.4171 31.4179C31 32.6163 31 35.0775 31 40C31 44.9225 31 47.3837 32.4171 48.5821C32.7198 48.8381 33.0589 49.0477 33.4233 49.204C35.1289 49.9355 37.3303 48.8348 41.7331 46.6334C47.0274 43.9863 49.6746 42.6627 50.0037 40.6433C50.0731 40.2172 50.0731 39.7828 50.0037 39.3567C49.6746 37.3373 47.0274 36.0137 41.7331 33.3666C37.3303 31.1652 35.1289 30.0645 33.4233 30.796C33.0589 30.9523 32.7198 31.1619 32.4171 31.4179Z" fill="#10979B"/>
    </symbol>

    <symbol id="viber" viewBox="0 0 16 17">
        <path d="M9.55593 1H6.44468C3.42917 1 1 3.42917 1 6.44468V8.77812C1 10.8842 2.2086 12.7988 4.11125 13.6963V16.3049C4.11125 16.4366 4.23091 16.5562 4.38647 16.5562C4.44631 16.5562 4.5181 16.5323 4.56597 16.4844L6.81564 14.2228H9.55593C12.5715 14.2228 15.0006 11.7936 15.0006 8.77812V6.44468C15.0006 3.42917 12.5715 1 9.55593 1ZM11.6022 11.2073L10.8244 11.9851C9.98672 12.7988 7.83278 11.8654 5.93013 9.92689C4.02748 7.98834 3.17787 5.7985 3.97962 4.98479L4.75743 4.20698C5.06856 3.91979 5.55918 3.93175 5.8703 4.23091L6.99514 5.40361C7.28233 5.71474 7.28233 6.18143 6.9712 6.49255C6.88744 6.57631 6.79171 6.62418 6.68401 6.67205C6.28912 6.79171 6.08569 7.17463 6.18143 7.56952C6.37289 8.4311 7.46182 9.50807 8.2875 9.72346C8.67042 9.81919 9.06531 9.6038 9.19694 9.23284C9.32857 8.84992 9.75936 8.63453 10.1662 8.76615C10.2859 8.80205 10.3816 8.88582 10.4773 8.95762L11.6022 10.1303C11.8894 10.4175 11.8894 10.8962 11.6022 11.2073ZM8.69436 4.6976C8.61059 4.6976 8.53879 4.6976 8.467 4.72153C8.33537 4.74546 8.19177 4.63777 8.1798 4.4822C8.16784 4.32664 8.26357 4.20698 8.40716 4.19501C8.50289 4.17108 8.59863 4.17108 8.69436 4.17108C10.1303 4.17108 11.2791 5.34378 11.303 6.75581C11.303 6.85154 11.303 6.94727 11.2791 7.043C11.2552 7.17463 11.1475 7.2943 10.9919 7.27036C10.8363 7.24643 10.7406 7.13873 10.7645 6.98317C10.7645 6.89941 10.7885 6.82761 10.7885 6.75581C10.7765 5.63097 9.84313 4.6976 8.69436 4.6976ZM10.25 6.77974C10.226 6.91137 10.1184 7.03104 9.96279 7.0071C9.84313 6.98317 9.73543 6.88744 9.73543 6.77974C9.73543 6.21732 9.26874 5.75064 8.70632 5.75064C8.57469 5.77457 8.4311 5.65491 8.41913 5.51131C8.3952 5.37968 8.51486 5.23608 8.64649 5.22412H8.68239C9.57987 5.22412 10.25 5.91817 10.25 6.77974ZM12.2364 7.60542C12.2125 7.73705 12.0808 7.83278 11.9492 7.82081C11.8176 7.80885 11.7218 7.66525 11.7338 7.53362V7.49772C11.7936 7.27036 11.8176 7.03104 11.8176 6.77974C11.8176 5.06856 10.4175 3.66849 8.70632 3.66849H8.47896C8.34733 3.69243 8.20374 3.57276 8.20374 3.42917C8.1798 3.29754 8.29947 3.15394 8.4311 3.15394C8.52683 3.15394 8.62256 3.13001 8.70632 3.13001C10.7047 3.13001 12.3441 4.75743 12.3441 6.76778C12.3321 7.043 12.2962 7.34216 12.2364 7.60542Z" fill="#10979B"/>
    </symbol>

    <symbol id="telegram" viewBox="0 0 16 17">
        <path d="M6.278 11.1206L6.01333 14.8433C6.392 14.8433 6.556 14.6806 6.75266 14.4853L8.528 12.7886L12.2067 15.4826C12.8813 15.8586 13.3567 15.6606 13.5387 14.8619L15.9533 3.54728L15.954 3.54661C16.168 2.54928 15.5933 2.15928 14.936 2.40394L0.742663 7.83794C-0.226003 8.21394 -0.211337 8.75394 0.577996 8.99861L4.20666 10.1273L12.6353 4.85328C13.032 4.59061 13.3927 4.73594 13.096 4.99861L6.278 11.1206Z" fill="#10979B"/>
    </symbol>

    <symbol id="card-logo" viewBox="0 0 125 88">
        <path d="M121 25.5C123.209 25.5 125.013 27.2927 124.872 29.4973C124.434 36.3375 122.872 43.0685 120.242 49.4177C117.102 57.0006 112.498 63.8905 106.694 69.6942C100.891 75.4978 94.0006 80.1016 86.4177 83.2425C78.8349 86.3834 70.7076 88 62.5 88C54.2924 88 46.1651 86.3834 38.5823 83.2425C30.9994 80.1015 24.1095 75.4978 18.3058 69.6942C12.5022 63.8905 7.89845 57.0006 4.75753 49.4177C2.12758 43.0685 0.566328 36.3375 0.127955 29.4973C-0.0133333 27.2927 1.79086 25.5 4 25.5H5.375C7.58414 25.5 9.35934 27.2934 9.52552 29.4963C9.94858 35.1044 11.2602 40.6185 13.4189 45.8301C16.0887 52.2755 20.0018 58.1319 24.9349 63.065C29.8681 67.9982 35.7245 71.9113 42.1699 74.5811C48.6154 77.2509 55.5235 78.625 62.5 78.625C69.4765 78.625 76.3846 77.2509 82.8301 74.5811C89.2755 71.9113 95.1319 67.9982 100.065 63.065C104.998 58.1319 108.911 52.2755 111.581 45.8301C113.74 40.6185 115.051 35.1044 115.474 29.4963C115.641 27.2934 117.416 25.5 119.625 25.5H121Z" fill="#10979B"/>
        <path d="M119.007 10.3591C121.141 9.78733 123.347 11.0519 123.781 13.218C123.934 13.9788 124.072 14.7423 124.196 15.5082C124.549 17.689 122.926 19.6472 120.728 19.8602L119.359 19.9928C117.16 20.2057 115.22 18.5919 114.842 16.4153C114.798 16.1596 114.752 15.9043 114.704 15.6493C114.294 13.4784 115.545 11.2867 117.679 10.715L119.007 10.3591Z" fill="#10979B"/>
    </symbol>

</svg>